<?xml version="1.0"?>
<svg xmlns="http://www.w3.org/2000/svg" xmlns:xlink="http://www.w3.org/1999/xlink" version="1.1" id="Ebene_1" x="0px" y="0px" viewBox="0 0 1920 1920" style="enable-background:new 0 0 1920 1920;" xml:space="preserve" width="75" height="75">
  <style type="text/css">
	.st0{fill:#002B4D;}
	.st1{fill:#ACC6D3;}
</style>
  <rect id="Rechteck_175_00000111899515574936043040000000990592008506262177_" class="st0" width="1920" height="1920"/>
  <g id="Gruppe_120_00000041999362432284691750000002030184370886249657_" transform="translate(-16 -25)">
    <g id="logo-HuP-hoch-2c_00000151501798064645247690000016726080585801446813_" transform="translate(271 38)">
      <path id="Pfad_144_00000103265691777517400220000012073850696057708702_" class="st1" d="M1447.1,931.6l-195.9-196    c-18.3-15.8-20.3-43.5-4.5-61.9c1.6-1.8,3.3-3.5,5.2-5.1l0,0l195.2-195.4c14.1-14.2,14.1-37,0-51.2l-201.4-201.6    c-14.2-14.1-37-14.1-51.2,0l-193.3,193.3l0,0c-20.1,21.4-40.2,22.3-60.3,3.1L744.5,220.6c-14.2-14.1-37-14.1-51.2,0L500,413.8l0,0    c-11.6,17.4-35.1,22.1-52.5,10.5c-3.5-2.3-6.6-5.3-9.2-8.7L243.3,220.6c-14.2-14.1-37-14.1-51.2,0L-9.5,422.1    c-14.1,14.2-14.1,37,0,51.2l195.3,195.3l0,0c18.7,15.5,21.2,43.1,5.8,61.8c-1.6,1.9-3.3,3.6-5.1,5.2l-196,196    c-14.1,14.2-14.1,37,0,51.2l195.3,195.3l0,0c18.7,15.5,21.3,43.3,5.8,62c-1.7,2.1-3.7,4-5.8,5.8l0,0L-9.5,1441.3    c-14.1,14.2-14.1,37,0,51.2l201.6,201.5c14.2,14.1,37,14.1,51.2,0L438.4,1499c12.6-16.7,36.3-19.9,53-7.3c3.4,2.6,6.3,5.7,8.7,9.2    l0,0l193.2,193.2c14.2,14.1,37,14.1,51.2,0l196.4-196.4c20.1-19.2,40.2-18.3,60.3,3.1l0,0l193.4,193.2c14.2,14.1,37,14.1,51.2,0    l201.5-201.5c14.1-14.2,14.1-37,0-51.2L1252,1246l0,0c-18.7-15.5-21.3-43.3-5.8-62c1.7-2.1,3.7-4,5.8-5.8l0,0l195.3-195.4    C1461.3,968.6,1461.2,945.8,1447.1,931.6z M1001.1,481.6L1001.1,481.6l187.2,187.1l0,0c18.7,15.5,21.2,43.1,5.8,61.8    c-1.5,1.9-3.3,3.6-5.1,5.2l-187.8,187.8l0,0c-20.1,21.4-40.2,22.3-60.3,3.1L750,735.7c-18.3-15.8-20.3-43.5-4.5-61.9    c1.6-1.8,3.3-3.5,5.2-5.1l0,0l190.1-190.2C960.9,459.3,981,460.2,1001.1,481.6z M499.9,481.6L499.9,481.6L687,668.7l0,0    c18.7,15.5,21.2,43.1,5.8,61.8c-1.5,1.9-3.3,3.6-5.1,5.2L500,923.4l0,0c-11.6,17.4-35.1,22.1-52.5,10.5c-3.5-2.3-6.6-5.3-9.2-8.6    L248.8,735.8c-18.3-15.8-20.3-43.5-4.5-61.9c1.6-1.8,3.3-3.5,5.2-5.1l0,0l188.8-189c12.6-16.7,36.4-20,53-7.4    C494.7,475,497.6,478.1,499.9,481.6z M438.3,1434.8L249.4,1246l0,0c-18.7-15.5-21.3-43.3-5.8-62c1.7-2.1,3.7-4,5.8-5.8l0,0    l188.8-188.9c12.6-16.7,36.3-19.9,53-7.3c3.4,2.6,6.3,5.7,8.7,9.2l0,0L687,1178.2l0,0c18.7,15.5,21.3,43.3,5.8,62    c-1.7,2.1-3.7,4-5.8,5.8l0,0L500,1433l0,0c-11.6,17.4-35.1,22.1-52.5,10.6C444,1441.2,440.9,1438.2,438.3,1434.8z M940.8,1436.1    L750.7,1246l0,0c-18.7-15.5-21.3-43.3-5.8-62c1.7-2.1,3.7-4,5.8-5.8l0,0L940.8,988c20.1-19.2,40.2-18.3,60.3,3.1l0,0l187.1,187.1    l0,0c18.7,15.5,21.3,43.3,5.8,62c-1.7,2.1-3.7,4-5.8,5.8l0,0L1001.1,1433l0,0C981,1454.4,960.9,1455.3,940.8,1436.1L940.8,1436.1z    "/>
    </g>
  </g>
  <style>
  @media (prefers-color-scheme:dark){
    .st0{fill:#ACC6D3;}
    .st1{fill:#002B4D;}
    }
</style>
</svg>
