<svg xmlns="http://www.w3.org/2000/svg" width="79.961" height="124"><path d="M79.233 38.466 68.79 28.018a2.338 2.338 0 0 1 .037-3.569l10.406-10.414a1.937 1.937 0 0 0 0-2.729L68.496.562a1.937 1.937 0 0 0-2.729 0L55.461 10.868c-1.071 1.141-2.143 1.187-3.214.166L41.776.564a1.937 1.937 0 0 0-2.729 0l-10.3 10.3a2.017 2.017 0 0 1-3.287.1L15.06.564a1.937 1.937 0 0 0-2.729 0L1.585 11.307a1.937 1.937 0 0 0 0 2.729l10.413 10.413a2.338 2.338 0 0 1 .035 3.571L1.585 38.467a1.937 1.937 0 0 0 0 2.729l10.413 10.413a2.348 2.348 0 0 1 0 3.613L1.587 65.637a1.937 1.937 0 0 0 0 2.729l10.746 10.743a1.937 1.937 0 0 0 2.729 0l10.4-10.4a2.017 2.017 0 0 1 3.287.1l10.3 10.3a1.937 1.937 0 0 0 2.729 0l10.467-10.467c1.071-1.021 2.143-.974 3.214.166L65.77 79.109a1.937 1.937 0 0 0 2.729 0l10.742-10.743a1.937 1.937 0 0 0 0-2.729L68.833 55.226a2.348 2.348 0 0 1 0-3.613l10.41-10.416a1.943 1.943 0 0 0-.01-2.731ZM55.456 14.478l9.977 9.971a2.338 2.338 0 0 1 .037 3.569L55.461 38.03c-1.071 1.141-2.143 1.187-3.214.166L42.07 28.02a2.338 2.338 0 0 1 .037-3.569l10.135-10.139c1.072-1.022 2.143-.975 3.214.166Zm-26.714 0 9.972 9.972a2.338 2.338 0 0 1 .037 3.569L28.744 38.026a2.019 2.019 0 0 1-3.289.1l-10.1-10.1a2.338 2.338 0 0 1 .037-3.569l10.062-10.076a2.018 2.018 0 0 1 3.288.097ZM25.455 65.29 15.389 55.223a2.348 2.348 0 0 1 0-3.613l10.066-10.07a2.017 2.017 0 0 1 3.287.1l9.972 9.972a2.348 2.348 0 0 1 0 3.613l-9.97 9.965a2.017 2.017 0 0 1-3.289.1Zm26.787.069L42.107 55.223a2.348 2.348 0 0 1 0-3.613l10.137-10.141c1.071-1.021 2.143-.974 3.214.166l9.975 9.971a2.348 2.348 0 0 1 0 3.613l-9.975 9.975c-1.073 1.139-2.144 1.185-3.216.164Z" fill="#acc6d3"/><path d="M9.09 101.082H2.243v5.908H.978V94.362h1.265v5.67H9.09v-5.67h1.265v12.628H9.09Zm13.189 2.91h-5.745l-1.1 3h-1.338l4.605-12.467h1.428l4.59 12.467h-1.336Zm-2.873-7.877-2.493 6.83h4.986Zm8.69-1.591h1.336l4.825 10.8 4.825-10.8h1.355v12.467h-1.265v-9.957l-4.444 9.956h-.922l-4.444-9.919v9.919h-1.265V94.524Zm16.568 0H46l4.825 10.8 4.825-10.8h1.355v12.467H55.74v-9.957l-4.446 9.957h-.922l-4.444-9.919v9.919h-1.264Zm23.162.867h-5.331v4.715h4.788v1.048h-4.788v4.788h5.331v1.048h-6.6V94.344h6.6Zm7.642-1.029c2.927 0 4.3 1.589 4.3 3.668a3.484 3.484 0 0 1-3.107 3.595l3.252 5.366h-1.518l-3.125-5.276h-2.33v5.276h-1.265V94.362Zm0 1.065h-2.53v5.257h2.548c2.06 0 2.981-1.12 2.981-2.656.001-1.589-.867-2.596-2.999-2.596ZM5.942 114.892a1.482 1.482 0 0 0-1.591-1.557 1.493 1.493 0 0 0-1.655 1.461 3.209 3.209 0 0 0 1.173 2.137l3.694 3.743c.209-.29.4-.611.611-.963l1.029-1.719h1.205l-1.221 2.1q-.434.748-.867 1.35l2.345 2.362H9.204l-1.525-1.557A4.9 4.9 0 0 1 3.824 124c-2.264 0-3.823-1.35-3.823-3.406a3.634 3.634 0 0 1 2.65-3.453 3.281 3.281 0 0 1-1.076-2.33c0-1.414 1.108-2.409 2.827-2.409a2.412 2.412 0 0 1 2.666 2.49H5.942Zm1 6.6-3.583-3.631c-1.525.562-2.232 1.461-2.232 2.7a2.492 2.492 0 0 0 2.7 2.458 3.851 3.851 0 0 0 3.111-1.527Zm10.549-2.475h-2.265v4.786h-1.124v-11.227h3.389c2.6 0 3.791 1.382 3.791 3.229 0 1.815-1.156 3.212-3.791 3.212Zm0-.963c1.9 0 2.635-.867 2.635-2.249 0-1.446-.739-2.281-2.635-2.281h-2.265v4.531Zm12.53 3.084h-5.107l-.98 2.667h-1.19l4.1-11.085h1.27l4.079 11.085h-1.189Zm-2.554-7-2.217 6.073h4.433Zm10.244-1.562c2.6 0 3.823 1.414 3.823 3.261a3.1 3.1 0 0 1-2.763 3.2l2.891 4.771h-1.349l-2.78-4.69h-2.072v4.69h-1.12v-11.231h3.37Zm0 .948h-2.249v4.675h2.264c1.832 0 2.65-1 2.65-2.362.006-1.411-.765-2.311-2.665-2.311Zm5.61-.948h7.374v.931h-3.116v10.3h-1.125v-10.3h-3.133Zm17.976 0v11.228h-1.125l-6.216-9.445v9.445h-1.124v-11.228h1.125l6.216 9.43v-9.43Zm8.77.915h-4.739v4.192h4.256v.931h-4.256v4.256h4.739v.931h-5.864v-11.244h5.864Zm5.939-.915c2.6 0 3.823 1.414 3.823 3.261a3.1 3.1 0 0 1-2.763 3.2l2.891 4.771h-1.349l-2.78-4.69h-2.072v4.69h-1.12v-11.231h3.37Zm0 .948h-2.249v4.675h2.265c1.832 0 2.65-1 2.65-2.362.005-1.411-.766-2.311-2.666-2.311Z" fill="#fff"/></svg>